<?xml version="1.0" encoding="UTF-8" standalone="no"?>
<svg width="300" height="40" xmlns="http://www.w3.org/2000/svg">
  <style>
    .payment-icon { fill: #f8f8f8; opacity: 0.9; }
    .payment-icon:hover { opacity: 1; }
  </style>
  
  <!-- Visa -->
  <g transform="translate(10, 5)" class="payment-icon">
    <rect x="0" y="0" width="50" height="30" rx="4" fill="#1A1F71"/>
    <path d="M20,20 L23,10 L26,10 L23,20 Z" fill="#F7B600"/>
    <path d="M15,10 L10,20 L13,20 L14,17.5 L18,17.5 L18.5,20 L21,20 L19,10 Z M15,15 L16,12.5 L17,15 Z" fill="#F7B600"/>
    <path d="M28,10 L28,20 L31,20 L35,13 L35,20 L38,20 L38,10 L35,10 L31,17 L31,10 Z" fill="#F7B600"/>
  </g>
  
  <!-- Mastercard -->
  <g transform="translate(70, 5)" class="payment-icon">
    <circle cx="15" cy="15" r="15" fill="#EB001B"/>
    <circle cx="35" cy="15" r="15" fill="#F79E1B"/>
    <path d="M25,5 C29,8 31,11.5 31,15 C31,18.5 29,22 25,25 C21,22 19,18.5 19,15 C19,11.5 21,8 25,5 Z" fill="#FF5F00"/>
  </g>
  
  <!-- PayPal -->
  <g transform="translate(130, 5)" class="payment-icon">
    <rect x="0" y="0" width="50" height="30" rx="4" fill="#003087"/>
    <path d="M15,8 C12,8 10,10 10,12.5 C10,15.5 12,17 15,17 L18,17 L19,20 L22,20 L21,17 L23,17 L23,14 L21,14 L20,8 Z M15,11 L17,11 L17.5,14 L15,14 C14,14 13,13.5 13,12.5 C13,11.5 14,11 15,11 Z" fill="#F7B600"/>
    <path d="M25,5 C22,5 20,7 20,9.5 C20,12.5 22,14 25,14 L28,14 L29,17 L32,17 L31,14 L33,14 L33,11 L31,11 L30,5 Z M25,8 L27,8 L27.5,11 L25,11 C24,11 23,10.5 23,9.5 C23,8.5 24,8 25,8 Z" fill="#FFFFFF"/>
  </g>
  
  <!-- OXXO -->
  <g transform="translate(190, 5)" class="payment-icon">
    <rect x="0" y="0" width="50" height="30" rx="4" fill="#D8232A"/>
    <path d="M10,10 L15,10 L15,20 L10,20 Z M20,10 L25,10 L25,20 L20,20 Z M30,10 L35,10 L35,20 L30,20 Z M40,10 L40,20 L45,20 L45,10 Z" fill="#FFFFFF"/>
  </g>
  
  <!-- Stripe -->
  <g transform="translate(250, 5)" class="payment-icon">
    <rect x="0" y="0" width="40" height="30" rx="4" fill="#6772E5"/>
    <path d="M20,10 C17,10 15,12 15,15 C15,18 17,20 20,20 C23,20 25,18 25,15 C25,12 23,10 20,10 Z M20,17 C19,17 18,16 18,15 C18,14 19,13 20,13 C21,13 22,14 22,15 C22,16 21,17 20,17 Z" fill="#FFFFFF"/>
  </g>
</svg>
