<svg xmlns="http://www.w3.org/2000/svg" width="700" height="700" viewBox="0 0 700 700">
  <path fill="#000" fill-opacity="0.05" d="M0,0 L700,0 L700,700 L0,700 L0,0 Z M65,8 L60,12 L63,17 L68,13 L65,8 Z M109,8 L104,12 L107,17 L112,13 L109,8 Z M153,8 L148,12 L151,17 L156,13 L153,8 Z M197,8 L192,12 L195,17 L200,13 L197,8 Z M241,8 L236,12 L239,17 L244,13 L241,8 Z M285,8 L280,12 L283,17 L288,13 L285,8 Z M329,8 L324,12 L327,17 L332,13 L329,8 Z M373,8 L368,12 L371,17 L376,13 L373,8 Z M417,8 L412,12 L415,17 L420,13 L417,8 Z M461,8 L456,12 L459,17 L464,13 L461,8 Z M505,8 L500,12 L503,17 L508,13 L505,8 Z M549,8 L544,12 L547,17 L552,13 L549,8 Z M593,8 L588,12 L591,17 L596,13 L593,8 Z M637,8 L632,12 L635,17 L640,13 L637,8 Z M681,8 L676,12 L679,17 L684,13 L681,8 Z M43,30 L38,34 L41,39 L46,35 L43,30 Z M87,30 L82,34 L85,39 L90,35 L87,30 Z M131,30 L126,34 L129,39 L134,35 L131,30 Z M175,30 L170,34 L173,39 L178,35 L175,30 Z M219,30 L214,34 L217,39 L222,35 L219,30 Z M263,30 L258,34 L261,39 L266,35 L263,30 Z M307,30 L302,34 L305,39 L310,35 L307,30 Z M351,30 L346,34 L349,39 L354,35 L351,30 Z M395,30 L390,34 L393,39 L398,35 L395,30 Z M439,30 L434,34 L437,39 L442,35 L439,30 Z M483,30 L478,34 L481,39 L486,35 L483,30 Z M527,30 L522,34 L525,39 L530,35 L527,30 Z M571,30 L566,34 L569,39 L574,35 L571,30 Z M615,30 L610,34 L613,39 L618,35 L615,30 Z M659,30 L654,34 L657,39 L662,35 L659,30 Z M21,52 L16,56 L19,61 L24,57 L21,52 Z M65,52 L60,56 L63,61 L68,57 L65,52 Z M109,52 L104,56 L107,61 L112,57 L109,52 Z M153,52 L148,56 L151,61 L156,57 L153,52 Z M197,52 L192,56 L195,61 L200,57 L197,52 Z M241,52 L236,56 L239,61 L244,57 L241,52 Z M285,52 L280,56 L283,61 L288,57 L285,52 Z M329,52 L324,56 L327,61 L332,57 L329,52 Z M373,52 L368,56 L371,61 L376,57 L373,52 Z M417,52 L412,56 L415,61 L420,57 L417,52 Z M461,52 L456,56 L459,61 L464,57 L461,52 Z M505,52 L500,56 L503,61 L508,57 L505,52 Z M549,52 L544,56 L547,61 L552,57 L549,52 Z M593,52 L588,56 L591,61 L596,57 L593,52 Z M637,52 L632,56 L635,61 L640,57 L637,52 Z M681,52 L676,56 L679,61 L684,57 L681,52 Z M43,74 L38,78 L41,83 L46,79 L43,74 Z M87,74 L82,78 L85,83 L90,79 L87,74 Z M131,74 L126,78 L129,83 L134,79 L131,74 Z M175,74 L170,78 L173,83 L178,79 L175,74 Z M219,74 L214,78 L217,83 L222,79 L219,74 Z M263,74 L258,78 L261,83 L266,79 L263,74 Z M307,74 L302,78 L305,83 L310,79 L307,74 Z M351,74 L346,78 L349,83 L354,79 L351,74 Z M395,74 L390,78 L393,83 L398,79 L395,74 Z M439,74 L434,78 L437,83 L442,79 L439,74 Z M483,74 L478,78 L481,83 L486,79 L483,74 Z M527,74 L522,78 L525,83 L530,79 L527,74 Z M571,74 L566,78 L569,83 L574,79 L571,74 Z M615,74 L610,78 L613,83 L618,79 L615,74 Z M659,74 L654,78 L657,83 L662,79 L659,74 Z M21,96 L16,100 L19,105 L24,101 L21,96 Z M65,96 L60,100 L63,105 L68,101 L65,96 Z M109,96 L104,100 L107,105 L112,101 L109,96 Z M153,96 L148,100 L151,105 L156,101 L153,96 Z M197,96 L192,100 L195,105 L200,101 L197,96 Z M241,96 L236,100 L239,105 L244,101 L241,96 Z M285,96 L280,100 L283,105 L288,101 L285,96 Z M329,96 L324,100 L327,105 L332,101 L329,96 Z M373,96 L368,100 L371,105 L376,101 L373,96 Z M417,96 L412,100 L415,105 L420,101 L417,96 Z M461,96 L456,100 L459,105 L464,101 L461,96 Z M505,96 L500,100 L503,105 L508,101 L505,96 Z M549,96 L544,100 L547,105 L552,101 L549,96 Z M593,96 L588,100 L591,105 L596,101 L593,96 Z M637,96 L632,100 L635,105 L640,101 L637,96 Z M681,96 L676,100 L679,105 L684,101 L681,96 Z"></path>
</svg>
